<?xml version="1.0" encoding="utf-8"?><svg width="26" height="13" viewBox="0 0 26 13" xmlns="http://www.w3.org/2000/svg" xmlns:xlink="http://www.w3.org/1999/xlink"><view id="image-del" viewBox="0 0 13 13"/><svg width="13" height="13" fill="none" viewBox="-1 -1 13 13" xmlns="http://www.w3.org/2000/svg"><path d="M4.469 4.813v2.75a.344.344 0 00.687 0v-2.75a.344.344 0 00-.687 0zM6.188 4.469a.344.344 0 01.343.343v2.75a.344.344 0 01-.687 0v-2.75a.344.344 0 01.343-.343z" fill="#fff"/><path d="M6.875 2.75h2.063a.344.344 0 010 .688h-.38L8.04 8.096a1.719 1.719 0 01-1.708 1.529H4.668A1.719 1.719 0 012.96 8.096l-.518-4.659h-.38a.344.344 0 010-.687h2.063a1.375 1.375 0 012.75 0zM5.5 2.062a.688.688 0 00-.688.688h1.375a.688.688 0 00-.687-.688zM3.134 3.438l.51 4.582a1.031 1.031 0 001.024.918h1.664a1.031 1.031 0 001.024-.918l.51-4.582H3.135z" fill="#fff"/></svg><view id="image-pen" viewBox="13 0 13 13"/><svg width="13" height="13" fill="none" viewBox="-1 -1 13 13" x="13" xmlns="http://www.w3.org/2000/svg"><path d="M8.218 1.364a1.408 1.408 0 00-1 .42L1.784 7.218l-.021.107-.376 1.891-.108.505.505-.108 1.891-.376.107-.021L9.217 3.78a1.4 1.4 0 000-1.998 1.408 1.408 0 00-1-.419zm0 .656c.173 0 .348.079.515.247.335.334.335.696 0 1.03l-.247.237-1.02-1.02.236-.247c.168-.168.342-.247.516-.247zm-1.235.977l1.02 1.02-4.157 4.157a2.342 2.342 0 00-1.021-1.02l4.158-4.157zM2.385 7.713a1.627 1.627 0 01.902.902l-1.128.226.226-1.128z" fill="#fff"/></svg></svg>