<svg width="11" height="11" viewBox="0 0 11 11" fill="none" xmlns="http://www.w3.org/2000/svg">
<path d="M4.46875 4.8125V7.5625C4.46875 7.65367 4.50497 7.7411 4.56943 7.80557C4.6339 7.87003 4.72133 7.90625 4.8125 7.90625C4.90367 7.90625 4.9911 7.87003 5.05557 7.80557C5.12003 7.7411 5.15625 7.65367 5.15625 7.5625V4.8125C5.15625 4.72133 5.12003 4.6339 5.05557 4.56943C4.9911 4.50497 4.90367 4.46875 4.8125 4.46875C4.72133 4.46875 4.6339 4.50497 4.56943 4.56943C4.50497 4.6339 4.46875 4.72133 4.46875 4.8125Z" fill="white"/>
<path d="M6.1875 4.46875C6.27867 4.46875 6.3661 4.50497 6.43057 4.56943C6.49503 4.6339 6.53125 4.72133 6.53125 4.8125V7.5625C6.53125 7.65367 6.49503 7.7411 6.43057 7.80557C6.3661 7.87003 6.27867 7.90625 6.1875 7.90625C6.09633 7.90625 6.0089 7.87003 5.94443 7.80557C5.87997 7.7411 5.84375 7.65367 5.84375 7.5625V4.8125C5.84375 4.72133 5.87997 4.6339 5.94443 4.56943C6.0089 4.50497 6.09633 4.46875 6.1875 4.46875Z" fill="white"/>
<path d="M6.875 2.75H8.9375C9.02867 2.75 9.1161 2.78622 9.18057 2.85068C9.24503 2.91515 9.28125 3.00258 9.28125 3.09375C9.28125 3.18492 9.24503 3.27235 9.18057 3.33682C9.1161 3.40128 9.02867 3.4375 8.9375 3.4375H8.55731L8.04031 8.096C7.99361 8.51643 7.7935 8.90488 7.47829 9.18699C7.16307 9.46909 6.75489 9.62505 6.33188 9.625H4.66812C4.24511 9.62505 3.83693 9.46909 3.52171 9.18699C3.2065 8.90488 3.00639 8.51643 2.95969 8.096L2.442 3.4375H2.0625C1.97133 3.4375 1.8839 3.40128 1.81943 3.33682C1.75497 3.27235 1.71875 3.18492 1.71875 3.09375C1.71875 3.00258 1.75497 2.91515 1.81943 2.85068C1.8839 2.78622 1.97133 2.75 2.0625 2.75H4.125C4.125 2.38533 4.26987 2.03559 4.52773 1.77773C4.78559 1.51987 5.13533 1.375 5.5 1.375C5.86467 1.375 6.21441 1.51987 6.47227 1.77773C6.73013 2.03559 6.875 2.38533 6.875 2.75V2.75ZM5.5 2.0625C5.31766 2.0625 5.1428 2.13493 5.01386 2.26386C4.88493 2.3928 4.8125 2.56766 4.8125 2.75H6.1875C6.1875 2.56766 6.11507 2.3928 5.98614 2.26386C5.8572 2.13493 5.68234 2.0625 5.5 2.0625V2.0625ZM3.13431 3.4375L3.64306 8.02038C3.67115 8.27259 3.79124 8.50559 3.98036 8.67479C4.16948 8.844 4.41436 8.93754 4.66812 8.9375H6.33188C6.58553 8.93737 6.83023 8.84376 7.01921 8.67456C7.20819 8.50537 7.32818 8.27247 7.35625 8.02038L7.86638 3.4375H3.135H3.13431Z" fill="white"/>
</svg>
