<svg width="11" height="11" viewBox="0 0 11 11" fill="none" xmlns="http://www.w3.org/2000/svg">
<path d="M8.21766 1.36435C8.03174 1.3648 7.84774 1.40206 7.67629 1.47398C7.50484 1.5459 7.34933 1.65105 7.21873 1.78338L1.78301 7.21876L1.76169 7.32635L1.38563 9.21698L1.27838 9.7216L1.78335 9.61435L3.67398 9.23829L3.78123 9.21663L9.21694 3.78126C9.34962 3.65088 9.45499 3.49538 9.52693 3.32385C9.59886 3.15231 9.63591 2.96816 9.63591 2.78215C9.63591 2.59614 9.59886 2.41199 9.52693 2.24045C9.45499 2.06891 9.34962 1.91341 9.21694 1.78304C9.08627 1.65073 8.93069 1.54562 8.75918 1.47375C8.58767 1.40189 8.40362 1.36471 8.21766 1.36435V1.36435ZM8.21766 2.01954C8.39091 2.01954 8.56554 2.0986 8.73329 2.26669C9.06776 2.60082 9.06776 2.96347 8.73329 3.29794L8.48648 3.5341L7.46554 2.51351L7.70204 2.26669C7.87013 2.0986 8.04441 2.01954 8.21766 2.01954V2.01954ZM6.98257 2.99716L8.00282 4.01776L3.84585 8.17438C3.62143 7.7353 3.26415 7.37825 2.82491 7.15413L6.98257 2.99716ZM2.38491 7.71307C2.58836 7.79492 2.77316 7.91704 2.92822 8.0721C3.08329 8.22717 3.20541 8.41197 3.28726 8.61541L2.15907 8.84091L2.38491 7.71307Z" fill="white"/>
</svg>
