<?xml version="1.0" encoding="utf-8"?><svg width="13" height="13" viewBox="0 0 13 13" xmlns="http://www.w3.org/2000/svg" xmlns:xlink="http://www.w3.org/1999/xlink"><view id="image-del" viewBox="0 0 13 13"/><svg width="13" height="13" fill="none" viewBox="-1 -1 13 13" xmlns="http://www.w3.org/2000/svg"><path d="M4.469 4.813v2.75a.344.344 0 00.687 0v-2.75a.344.344 0 00-.687 0zM6.188 4.469a.344.344 0 01.343.343v2.75a.344.344 0 01-.687 0v-2.75a.344.344 0 01.343-.343z" fill="#fff"/><path d="M6.875 2.75h2.063a.344.344 0 010 .688h-.38L8.04 8.096a1.719 1.719 0 01-1.708 1.529H4.668A1.719 1.719 0 012.96 8.096l-.518-4.659h-.38a.344.344 0 010-.687h2.063a1.375 1.375 0 012.75 0zM5.5 2.062a.688.688 0 00-.688.688h1.375a.688.688 0 00-.687-.688zM3.134 3.438l.51 4.582a1.031 1.031 0 001.024.918h1.664a1.031 1.031 0 001.024-.918l.51-4.582H3.135z" fill="#fff"/></svg></svg>