<?xml version="1.0" encoding="utf-8"?><svg viewBox="0 0 72 72" xmlns="http://www.w3.org/2000/svg" xmlns:xlink="http://www.w3.org/1999/xlink"><style>:root>svg{display:none}:root>svg:target{display:block}</style><svg viewBox="-1 -1 33 38" id="image-clock" xmlns="http://www.w3.org/2000/svg"><defs><path id="aa" d="M842.15 2924.143a.726.726 0 01-1.023 0l-4.335-4.334a.727.727 0 01-.211-.511v-10.113a.723.723 0 011.445 0V2919l4.124 4.122a.723.723 0 010 1.022zm-4.846-20.026c.242 0 .483.005.722.017v-2.898h-1.445v2.898c.24-.012.48-.017.723-.017zm15.173 15.182c0 8.367-6.806 15.173-15.173 15.173-8.368 0-15.174-6.806-15.174-15.173 0-7.631 5.662-13.965 13.006-15.02v-3.044h-.723a.723.723 0 010-1.445h5.78a.723.723 0 010 1.445h-.722v3.045a15.084 15.084 0 016.346 2.464l1.747-2.33a.722.722 0 111.156.867l-1.748 2.331c3.36 2.786 5.505 6.99 5.505 11.687zm-1.445 0c0-7.568-6.159-13.727-13.728-13.727-7.57 0-13.729 6.159-13.729 13.727 0 7.57 6.16 13.728 13.729 13.728 7.569 0 13.728-6.159 13.728-13.728z"/></defs><use xlink:href="#aa" transform="translate(-822 -2899)"/></svg><svg viewBox="-1 -1 24 24" id="image-money" xmlns="http://www.w3.org/2000/svg"><path d="M21.084 9.904c.507 0 .916.41.916.916v10.264a.914.914 0 01-.916.916H.916A.914.914 0 010 21.084V10.82c0-.507.409-.916.916-.916h20.168zM10.405 16.68h1.201c.883 0 1.579-.214 2.088-.64.509-.427.763-1.01.763-1.751 0-.472-.114-.885-.342-1.24a2.207 2.207 0 00-.971-.82c-.42-.19-.91-.286-1.47-.286h-2.65v3.783h-.853v.954h.853v.886h-.853v.696h.853v1.482h1.381v-1.482h1.684v-.696h-1.684v-.886zm0-.954V13.02h1.066c.464 0 .833.12 1.106.36.273.239.41.565.41.976 0 .427-.135.762-.404 1.005-.27.243-.64.365-1.112.365h-1.066zm8.273-9.081a.917.917 0 010 1.832H3.322a.914.914 0 01-.915-.916c0-.508.408-.916.915-.916h15.356zM6.075 5.155a.911.911 0 01-.916-.917c0-.507.408-.916.916-.916h9.855c.507 0 .916.409.916.916a.914.914 0 01-.916.916H6.075zM9.36 1.831a.914.914 0 01-.916-.916c0-.507.409-.916.916-.916h3.282c.508 0 .916.409.916.916a.914.914 0 01-.916.916H9.361z" fill="#A2C042" fill-rule="evenodd"/></svg><svg viewBox="-1 -1 24 24" id="image-money-hover" xmlns="http://www.w3.org/2000/svg"><path d="M21.084 9.904c.507 0 .916.41.916.916v10.264a.914.914 0 01-.916.916H.916A.914.914 0 010 21.084V10.82c0-.507.409-.916.916-.916h20.168zM10.405 16.68h1.201c.883 0 1.579-.214 2.088-.64.509-.427.763-1.01.763-1.751 0-.472-.114-.885-.342-1.24a2.207 2.207 0 00-.971-.82c-.42-.19-.91-.286-1.47-.286h-2.65v3.783h-.853v.954h.853v.886h-.853v.696h.853v1.482h1.381v-1.482h1.684v-.696h-1.684v-.886zm0-.954V13.02h1.066c.464 0 .833.12 1.106.36.273.239.41.565.41.976 0 .427-.135.762-.404 1.005-.27.243-.64.365-1.112.365h-1.066zm8.273-9.081a.917.917 0 010 1.832H3.322a.914.914 0 01-.915-.916c0-.508.408-.916.915-.916h15.356zM6.075 5.155a.911.911 0 01-.916-.917c0-.507.408-.916.916-.916h9.855c.507 0 .916.409.916.916a.914.914 0 01-.916.916H6.075zM9.36 1.831a.914.914 0 01-.916-.916c0-.507.409-.916.916-.916h3.282c.508 0 .916.409.916.916a.914.914 0 01-.916.916H9.361z" fill="red" fill-rule="evenodd"/></svg><svg fill="none" viewBox="-1 -1 22 22" id="image-personal" xmlns="http://www.w3.org/2000/svg"><path fill-rule="evenodd" clip-rule="evenodd" d="M10 0C4.48 0 0 4.48 0 10s4.48 10 10 10 10-4.48 10-10S15.52 0 10 0zm0 3c1.66 0 3 1.34 3 3s-1.34 3-3 3-3-1.34-3-3 1.34-3 3-3zM4 13.98a7.2 7.2 0 0012 0c-.03-1.99-4.01-3.08-6-3.08-2 0-5.97 1.09-6 3.08z" fill="#FD9802"/></svg><svg fill="none" viewBox="-1 -1 22 22" id="image-personal-hover" xmlns="http://www.w3.org/2000/svg"><path fill-rule="evenodd" clip-rule="evenodd" d="M10 0C4.48 0 0 4.48 0 10s4.48 10 10 10 10-4.48 10-10S15.52 0 10 0zm0 3c1.66 0 3 1.34 3 3s-1.34 3-3 3-3-1.34-3-3 1.34-3 3-3zM4 13.98a7.2 7.2 0 0012 0c-.03-1.99-4.01-3.08-6-3.08-2 0-5.97 1.09-6 3.08z" fill="#00F"/></svg><svg viewBox="-1 -1 72 72" id="image-phone-rounded" xmlns="http://www.w3.org/2000/svg"><defs><linearGradient x1="48.349%" y1="1.651%" x2="48.349%" y2="98.349%" id="fa"><stop stop-color="#9EC71C" offset="0%"/><stop stop-color="#82A514" offset="100%"/></linearGradient></defs><g fill="none" fill-rule="evenodd"><path d="M35 1C16.222 1 1 16.222 1 35s15.222 34 34 34 34-15.222 34-34S53.778 1 35 1z" stroke-opacity=".24" stroke="#FFF" stroke-width="2" fill="url(#fa)"/><path d="M17 17h36v36H17z"/><path d="M26.93 33.185a22.723 22.723 0 009.885 9.885l3.3-3.3a1.491 1.491 0 011.53-.36 17.11 17.11 0 005.355.855c.825 0 1.5.675 1.5 1.5V47c0 .825-.675 1.5-1.5 1.5-14.085 0-25.5-11.415-25.5-25.5 0-.825.675-1.5 1.5-1.5h5.25c.825 0 1.5.675 1.5 1.5 0 1.875.3 3.675.855 5.355.165.525.045 1.11-.375 1.53l-3.3 3.3z" fill="#FFF"/></g></svg></svg>